<mxfile host="Electron" agent="Mozilla/5.0 (Macintosh; Intel Mac OS X 10_15_7) AppleWebKit/537.36 (KHTML, like Gecko) draw.io/28.0.6 Chrome/138.0.7204.100 Electron/37.2.3 Safari/537.36" version="28.0.6">
  <diagram name="Page-1" id="qcMKJY3_mb-xXFnLHkpi">
    <mxGraphModel dx="849" dy="654" grid="1" gridSize="10" guides="1" tooltips="1" connect="1" arrows="1" fold="1" page="1" pageScale="1" pageWidth="827" pageHeight="1169" math="0" shadow="0">
      <root>
        <mxCell id="0" />
        <mxCell id="1" parent="0" />
        <mxCell id="D1C-Uw6BHI1zUn_v0fFK-1" value="" style="rounded=0;whiteSpace=wrap;html=1;fillColor=default;strokeColor=default;" vertex="1" parent="1">
          <mxGeometry x="30" y="240" width="140" height="560" as="geometry" />
        </mxCell>
        <mxCell id="D1C-Uw6BHI1zUn_v0fFK-2" value="Sources" style="rounded=0;whiteSpace=wrap;html=1;fontSize=24;strokeColor=none;" vertex="1" parent="1">
          <mxGeometry x="45" y="230" width="110" height="30" as="geometry" />
        </mxCell>
        <mxCell id="D1C-Uw6BHI1zUn_v0fFK-3" value="" style="rounded=0;whiteSpace=wrap;html=1;fillColor=none;strokeColor=default;" vertex="1" parent="1">
          <mxGeometry x="200" y="240" width="440" height="560" as="geometry" />
        </mxCell>
        <mxCell id="D1C-Uw6BHI1zUn_v0fFK-4" value="Data Warehouse" style="rounded=0;whiteSpace=wrap;html=1;fontSize=24;strokeColor=none;" vertex="1" parent="1">
          <mxGeometry x="260" y="230" width="320" height="30" as="geometry" />
        </mxCell>
        <mxCell id="D1C-Uw6BHI1zUn_v0fFK-5" value="" style="rounded=0;whiteSpace=wrap;html=1;fillColor=default;strokeColor=default;" vertex="1" parent="1">
          <mxGeometry x="670" y="240" width="140" height="560" as="geometry" />
        </mxCell>
        <mxCell id="D1C-Uw6BHI1zUn_v0fFK-6" value="Consumer" style="rounded=0;whiteSpace=wrap;html=1;fontSize=24;strokeColor=none;" vertex="1" parent="1">
          <mxGeometry x="680" y="230" width="120" height="30" as="geometry" />
        </mxCell>
        <mxCell id="D1C-Uw6BHI1zUn_v0fFK-7" value="Bronze Layer" style="rounded=0;whiteSpace=wrap;html=1;fontSize=18;fillColor=#994C00;strokeColor=#994C00;fontStyle=1" vertex="1" parent="1">
          <mxGeometry x="220" y="290" width="120" height="30" as="geometry" />
        </mxCell>
        <mxCell id="D1C-Uw6BHI1zUn_v0fFK-8" value="" style="rounded=0;whiteSpace=wrap;html=1;strokeColor=#CC6600;" vertex="1" parent="1">
          <mxGeometry x="220" y="330" width="120" height="430" as="geometry" />
        </mxCell>
        <mxCell id="D1C-Uw6BHI1zUn_v0fFK-9" value="Silver Layer" style="rounded=0;whiteSpace=wrap;html=1;fontSize=18;fillColor=#968F9C;strokeColor=#994C00;fontStyle=1" vertex="1" parent="1">
          <mxGeometry x="360" y="290" width="120" height="30" as="geometry" />
        </mxCell>
        <mxCell id="D1C-Uw6BHI1zUn_v0fFK-10" value="" style="rounded=0;whiteSpace=wrap;html=1;strokeColor=#847C87;" vertex="1" parent="1">
          <mxGeometry x="360" y="330" width="120" height="430" as="geometry" />
        </mxCell>
        <mxCell id="D1C-Uw6BHI1zUn_v0fFK-11" value="Gold Layer" style="rounded=0;whiteSpace=wrap;html=1;fontSize=18;fillColor=#CCAE53;strokeColor=#994C00;fontStyle=1" vertex="1" parent="1">
          <mxGeometry x="500" y="290" width="120" height="30" as="geometry" />
        </mxCell>
        <mxCell id="D1C-Uw6BHI1zUn_v0fFK-12" value="" style="rounded=0;whiteSpace=wrap;html=1;strokeColor=#D4BF7F;" vertex="1" parent="1">
          <mxGeometry x="500" y="330" width="120" height="430" as="geometry" />
        </mxCell>
        <mxCell id="D1C-Uw6BHI1zUn_v0fFK-13" value="&lt;b&gt;&lt;font style=&quot;font-size: 14px;&quot;&gt;CRM&lt;/font&gt;&lt;/b&gt;" style="sketch=0;pointerEvents=1;shadow=0;dashed=0;html=1;strokeColor=none;labelPosition=center;verticalLabelPosition=bottom;verticalAlign=top;outlineConnect=0;align=center;shape=mxgraph.office.concepts.folder;fillColor=#2072B8;" vertex="1" parent="1">
          <mxGeometry x="75" y="320" width="50" height="45" as="geometry" />
        </mxCell>
        <mxCell id="D1C-Uw6BHI1zUn_v0fFK-14" value="" style="image;aspect=fixed;html=1;points=[];align=center;fontSize=12;image=img/lib/azure2/general/File.svg;" vertex="1" parent="1">
          <mxGeometry x="110" y="340" width="24.35" height="30" as="geometry" />
        </mxCell>
        <mxCell id="D1C-Uw6BHI1zUn_v0fFK-15" value="&lt;b&gt;&lt;font style=&quot;font-size: 14px;&quot;&gt;ERP&lt;/font&gt;&lt;/b&gt;" style="sketch=0;pointerEvents=1;shadow=0;dashed=0;html=1;strokeColor=none;labelPosition=center;verticalLabelPosition=bottom;verticalAlign=top;outlineConnect=0;align=center;shape=mxgraph.office.concepts.folder;fillColor=#2072B8;" vertex="1" parent="1">
          <mxGeometry x="75" y="440" width="50" height="45" as="geometry" />
        </mxCell>
        <mxCell id="D1C-Uw6BHI1zUn_v0fFK-16" value="" style="image;aspect=fixed;html=1;points=[];align=center;fontSize=12;image=img/lib/azure2/general/File.svg;" vertex="1" parent="1">
          <mxGeometry x="110" y="460" width="24.35" height="30" as="geometry" />
        </mxCell>
        <mxCell id="D1C-Uw6BHI1zUn_v0fFK-20" value="" style="endArrow=none;html=1;rounded=0;" edge="1" parent="1" target="D1C-Uw6BHI1zUn_v0fFK-1">
          <mxGeometry width="50" height="50" relative="1" as="geometry">
            <mxPoint x="30" y="520" as="sourcePoint" />
            <mxPoint x="125" y="510" as="targetPoint" />
            <Array as="points">
              <mxPoint x="170" y="520" />
            </Array>
          </mxGeometry>
        </mxCell>
        <mxCell id="D1C-Uw6BHI1zUn_v0fFK-21" value="&lt;b&gt;Object type&lt;/b&gt; : CSV Files" style="text;html=1;align=center;verticalAlign=middle;whiteSpace=wrap;rounded=0;" vertex="1" parent="1">
          <mxGeometry x="30" y="550" width="140" height="30" as="geometry" />
        </mxCell>
        <mxCell id="D1C-Uw6BHI1zUn_v0fFK-22" value="&lt;b&gt;Interface: &lt;/b&gt;Files in Folder" style="text;html=1;align=center;verticalAlign=middle;whiteSpace=wrap;rounded=0;" vertex="1" parent="1">
          <mxGeometry x="30" y="590" width="140" height="40" as="geometry" />
        </mxCell>
        <mxCell id="D1C-Uw6BHI1zUn_v0fFK-23" value="" style="html=1;verticalLabelPosition=bottom;align=center;labelBackgroundColor=#ffffff;verticalAlign=top;strokeWidth=2;strokeColor=#FFFFFF;shadow=0;dashed=0;shape=mxgraph.ios7.icons.data;fillColor=#CC6600;" vertex="1" parent="1">
          <mxGeometry x="257" y="340" width="46" height="50" as="geometry" />
        </mxCell>
        <mxCell id="D1C-Uw6BHI1zUn_v0fFK-24" value="" style="html=1;verticalLabelPosition=bottom;align=center;labelBackgroundColor=#ffffff;verticalAlign=top;strokeWidth=2;strokeColor=#FFFFFF;shadow=0;dashed=0;shape=mxgraph.ios7.icons.data;fillColor=#968F9C;" vertex="1" parent="1">
          <mxGeometry x="397" y="340" width="46" height="50" as="geometry" />
        </mxCell>
        <mxCell id="D1C-Uw6BHI1zUn_v0fFK-25" value="" style="html=1;verticalLabelPosition=bottom;align=center;labelBackgroundColor=#ffffff;verticalAlign=top;strokeWidth=2;strokeColor=#FFFFFF;shadow=0;dashed=0;shape=mxgraph.ios7.icons.data;fillColor=#CCAE53;" vertex="1" parent="1">
          <mxGeometry x="537" y="340" width="46" height="50" as="geometry" />
        </mxCell>
        <mxCell id="D1C-Uw6BHI1zUn_v0fFK-26" value="Raw Data" style="text;html=1;align=center;verticalAlign=middle;whiteSpace=wrap;rounded=0;fontSize=14;" vertex="1" parent="1">
          <mxGeometry x="240" y="400" width="80" height="30" as="geometry" />
        </mxCell>
        <mxCell id="D1C-Uw6BHI1zUn_v0fFK-27" value="Clean, Standardised Data" style="text;html=1;align=center;verticalAlign=middle;whiteSpace=wrap;rounded=0;fontSize=14;" vertex="1" parent="1">
          <mxGeometry x="360" y="400" width="120" height="30" as="geometry" />
        </mxCell>
        <mxCell id="D1C-Uw6BHI1zUn_v0fFK-28" value="Business-Ready Data" style="text;html=1;align=center;verticalAlign=middle;whiteSpace=wrap;rounded=0;fontSize=14;" vertex="1" parent="1">
          <mxGeometry x="505" y="400" width="110" height="30" as="geometry" />
        </mxCell>
        <mxCell id="D1C-Uw6BHI1zUn_v0fFK-29" value="" style="endArrow=none;html=1;rounded=0;entryX=0.994;entryY=0.39;entryDx=0;entryDy=0;entryPerimeter=0;" edge="1" parent="1">
          <mxGeometry width="50" height="50" relative="1" as="geometry">
            <mxPoint x="220" y="439.17" as="sourcePoint" />
            <mxPoint x="339.28" y="439.46999999999997" as="targetPoint" />
          </mxGeometry>
        </mxCell>
        <mxCell id="D1C-Uw6BHI1zUn_v0fFK-30" value="" style="endArrow=none;html=1;rounded=0;entryX=0.994;entryY=0.415;entryDx=0;entryDy=0;entryPerimeter=0;" edge="1" parent="1">
          <mxGeometry width="50" height="50" relative="1" as="geometry">
            <mxPoint x="360" y="440" as="sourcePoint" />
            <mxPoint x="479.5" y="440" as="targetPoint" />
          </mxGeometry>
        </mxCell>
        <mxCell id="D1C-Uw6BHI1zUn_v0fFK-31" value="" style="endArrow=none;html=1;rounded=0;entryX=0.994;entryY=0.415;entryDx=0;entryDy=0;entryPerimeter=0;" edge="1" parent="1">
          <mxGeometry width="50" height="50" relative="1" as="geometry">
            <mxPoint x="500" y="440" as="sourcePoint" />
            <mxPoint x="620" y="440" as="targetPoint" />
          </mxGeometry>
        </mxCell>
        <mxCell id="D1C-Uw6BHI1zUn_v0fFK-32" value="&lt;b&gt;Object Type&lt;/b&gt; : Tables&lt;div&gt;&lt;span style=&quot;background-color: transparent; color: light-dark(rgb(0, 0, 0), rgb(255, 255, 255));&quot;&gt;&lt;br&gt;&lt;/span&gt;&lt;/div&gt;&lt;div&gt;&lt;span style=&quot;background-color: transparent; color: light-dark(rgb(0, 0, 0), rgb(255, 255, 255));&quot;&gt;&lt;b&gt;Load :&amp;nbsp;&lt;/b&gt;&lt;/span&gt;&lt;/div&gt;&lt;div&gt;&lt;span style=&quot;font-size: 11px; background-color: transparent; color: light-dark(rgb(0, 0, 0), rgb(255, 255, 255));&quot;&gt;&lt;br&gt;&lt;/span&gt;&lt;/div&gt;&lt;div&gt;&lt;span style=&quot;background-color: transparent; color: light-dark(rgb(0, 0, 0), rgb(255, 255, 255));&quot;&gt;&amp;nbsp; &amp;nbsp; -&lt;b&gt;&amp;nbsp;&lt;/b&gt;&lt;/span&gt;&lt;span style=&quot;font-size: 11px; background-color: transparent; color: light-dark(rgb(0, 0, 0), rgb(255, 255, 255));&quot;&gt;Batch Processing&lt;/span&gt;&lt;/div&gt;&lt;div&gt;&lt;span style=&quot;font-size: 11px; background-color: transparent; color: light-dark(rgb(0, 0, 0), rgb(255, 255, 255));&quot;&gt;&amp;nbsp; &amp;nbsp; - Full Load&lt;/span&gt;&lt;/div&gt;&lt;div&gt;&lt;span style=&quot;font-size: 11px; background-color: transparent; color: light-dark(rgb(0, 0, 0), rgb(255, 255, 255));&quot;&gt;&amp;nbsp; &amp;nbsp; - Truncate &amp;amp; Insert&lt;/span&gt;&lt;/div&gt;&lt;div&gt;&lt;br&gt;&lt;/div&gt;&lt;div&gt;&lt;div&gt;&lt;b&gt;No Transformations&lt;/b&gt;&lt;/div&gt;&lt;/div&gt;&lt;div&gt;&lt;br&gt;&lt;/div&gt;&lt;div&gt;&lt;b&gt;Data Model: &lt;/b&gt;None (as it is)&lt;/div&gt;" style="text;html=1;align=left;verticalAlign=middle;whiteSpace=wrap;rounded=0;fontSize=12;" vertex="1" parent="1">
          <mxGeometry x="220" y="450" width="120" height="210" as="geometry" />
        </mxCell>
        <mxCell id="D1C-Uw6BHI1zUn_v0fFK-34" value="&lt;b&gt;Object Type&lt;/b&gt; : Tables&lt;div&gt;&lt;span style=&quot;background-color: transparent; color: light-dark(rgb(0, 0, 0), rgb(255, 255, 255));&quot;&gt;&lt;br&gt;&lt;/span&gt;&lt;/div&gt;&lt;div&gt;&lt;span style=&quot;background-color: transparent; color: light-dark(rgb(0, 0, 0), rgb(255, 255, 255));&quot;&gt;&lt;b&gt;Load :&amp;nbsp;&lt;/b&gt;&lt;/span&gt;&lt;/div&gt;&lt;div&gt;&lt;span style=&quot;font-size: 11px; background-color: transparent; color: light-dark(rgb(0, 0, 0), rgb(255, 255, 255));&quot;&gt;&lt;br&gt;&lt;/span&gt;&lt;/div&gt;&lt;div&gt;&lt;span style=&quot;background-color: transparent; color: light-dark(rgb(0, 0, 0), rgb(255, 255, 255));&quot;&gt;&lt;b&gt;&amp;nbsp; &amp;nbsp;&amp;nbsp;&lt;/b&gt;-&lt;b&gt;&amp;nbsp;&lt;/b&gt;&lt;/span&gt;&lt;span style=&quot;font-size: 11px; background-color: transparent; color: light-dark(rgb(0, 0, 0), rgb(255, 255, 255));&quot;&gt;Batch Processing&lt;/span&gt;&lt;/div&gt;&lt;div&gt;&lt;span style=&quot;font-size: 11px; background-color: transparent; color: light-dark(rgb(0, 0, 0), rgb(255, 255, 255));&quot;&gt;&amp;nbsp; &amp;nbsp; - Full Load&lt;/span&gt;&lt;/div&gt;&lt;div&gt;&lt;span style=&quot;font-size: 11px; background-color: transparent; color: light-dark(rgb(0, 0, 0), rgb(255, 255, 255));&quot;&gt;&amp;nbsp; &amp;nbsp; - Truncate &amp;amp; Insert&lt;/span&gt;&lt;/div&gt;&lt;div&gt;&lt;span style=&quot;font-size: 11px; background-color: transparent; color: light-dark(rgb(0, 0, 0), rgb(255, 255, 255));&quot;&gt;&lt;br&gt;&lt;/span&gt;&lt;/div&gt;&lt;div&gt;&lt;div&gt;&lt;b&gt;Transformations :&lt;/b&gt;&lt;/div&gt;&lt;/div&gt;&lt;div&gt;&lt;b&gt;&lt;br&gt;&lt;/b&gt;&lt;/div&gt;&lt;div&gt;&lt;font style=&quot;font-size: 11px;&quot;&gt;&lt;span style=&quot;background-color: transparent; color: light-dark(rgb(0, 0, 0), rgb(255, 255, 255));&quot;&gt;&amp;nbsp; - Data Cleansing&lt;/span&gt;&lt;br&gt;&lt;span style=&quot;background-color: transparent; color: light-dark(rgb(0, 0, 0), rgb(255, 255, 255));&quot;&gt;&amp;nbsp; - Data Standardisation&lt;/span&gt;&lt;br&gt;&lt;span style=&quot;background-color: transparent; color: light-dark(rgb(0, 0, 0), rgb(255, 255, 255));&quot;&gt;&amp;nbsp; - Data Normalisation&lt;/span&gt;&lt;br&gt;&lt;span style=&quot;background-color: transparent; color: light-dark(rgb(0, 0, 0), rgb(255, 255, 255));&quot;&gt;&amp;nbsp; - Derived Columns&lt;/span&gt;&lt;br&gt;&lt;span style=&quot;background-color: transparent; color: light-dark(rgb(0, 0, 0), rgb(255, 255, 255));&quot;&gt;&amp;nbsp; - Data Enrichment&lt;/span&gt;&lt;/font&gt;&lt;/div&gt;&lt;div&gt;&lt;br&gt;&lt;/div&gt;&lt;div&gt;&lt;b&gt;Data Model: &lt;/b&gt;None (as it is)&lt;/div&gt;" style="text;html=1;align=left;verticalAlign=middle;whiteSpace=wrap;rounded=0;fontSize=12;" vertex="1" parent="1">
          <mxGeometry x="360" y="450" width="120" height="290" as="geometry" />
        </mxCell>
        <mxCell id="D1C-Uw6BHI1zUn_v0fFK-35" value="&lt;b&gt;Object Type&lt;/b&gt; : Views&lt;div&gt;&lt;span style=&quot;background-color: transparent; color: light-dark(rgb(0, 0, 0), rgb(255, 255, 255));&quot;&gt;&lt;br&gt;&lt;/span&gt;&lt;/div&gt;&lt;div&gt;&lt;span style=&quot;background-color: transparent; color: light-dark(rgb(0, 0, 0), rgb(255, 255, 255));&quot;&gt;&lt;b&gt;No Load&amp;nbsp;&lt;/b&gt;&lt;/span&gt;&lt;/div&gt;&lt;div&gt;&lt;span style=&quot;background-color: transparent; color: light-dark(rgb(0, 0, 0), rgb(255, 255, 255));&quot;&gt;&lt;b&gt;&lt;br&gt;&lt;/b&gt;&lt;/span&gt;&lt;/div&gt;&lt;div&gt;&lt;div&gt;&lt;b&gt;Transformations :&lt;/b&gt;&lt;/div&gt;&lt;/div&gt;&lt;div&gt;&lt;b&gt;&lt;br&gt;&lt;/b&gt;&lt;/div&gt;&lt;div style=&quot;&quot;&gt;&lt;font style=&quot;font-size: 11px;&quot;&gt;&lt;span style=&quot;background-color: transparent; color: light-dark(rgb(0, 0, 0), rgb(255, 255, 255));&quot;&gt;&amp;nbsp; &amp;nbsp; - Data Integrations&lt;/span&gt;&lt;/font&gt;&lt;/div&gt;&lt;div style=&quot;&quot;&gt;&lt;font style=&quot;font-size: 11px;&quot;&gt;&lt;span style=&quot;background-color: transparent; color: light-dark(rgb(0, 0, 0), rgb(255, 255, 255));&quot;&gt;&amp;nbsp; &amp;nbsp; - Aggregations&lt;/span&gt;&lt;/font&gt;&lt;/div&gt;&lt;div style=&quot;&quot;&gt;&lt;font style=&quot;font-size: 11px;&quot;&gt;&lt;span style=&quot;background-color: transparent; color: light-dark(rgb(0, 0, 0), rgb(255, 255, 255));&quot;&gt;&amp;nbsp; &amp;nbsp; - Business Logic&lt;/span&gt;&lt;/font&gt;&lt;/div&gt;&lt;div style=&quot;&quot;&gt;&lt;br&gt;&lt;/div&gt;&lt;div&gt;&lt;b&gt;Data Model:&lt;/b&gt;&lt;/div&gt;&lt;div&gt;&lt;span style=&quot;background-color: transparent; color: light-dark(rgb(0, 0, 0), rgb(255, 255, 255));&quot;&gt;&lt;br&gt;&lt;/span&gt;&lt;/div&gt;&lt;div&gt;&lt;span style=&quot;background-color: transparent; color: light-dark(rgb(0, 0, 0), rgb(255, 255, 255));&quot;&gt;&amp;nbsp; &amp;nbsp; -&lt;b&gt;&amp;nbsp;&lt;/b&gt;&lt;/span&gt;&lt;span style=&quot;background-color: transparent; color: light-dark(rgb(0, 0, 0), rgb(255, 255, 255)); font-size: 11px;&quot;&gt;Star Schema&lt;/span&gt;&lt;/div&gt;&lt;div&gt;&lt;span style=&quot;font-size: 11px; background-color: transparent; color: light-dark(rgb(0, 0, 0), rgb(255, 255, 255));&quot;&gt;&amp;nbsp; &amp;nbsp; &amp;nbsp;- Flat Table&lt;/span&gt;&lt;/div&gt;&lt;div&gt;&lt;span style=&quot;font-size: 11px; background-color: transparent; color: light-dark(rgb(0, 0, 0), rgb(255, 255, 255));&quot;&gt;&amp;nbsp; &amp;nbsp; &amp;nbsp;- Aggregated Table&lt;/span&gt;&lt;/div&gt;" style="text;html=1;align=left;verticalAlign=middle;whiteSpace=wrap;rounded=0;fontSize=12;" vertex="1" parent="1">
          <mxGeometry x="500" y="450" width="120" height="250" as="geometry" />
        </mxCell>
        <mxCell id="D1C-Uw6BHI1zUn_v0fFK-36" value="" style="shape=flexArrow;endArrow=classic;html=1;rounded=0;entryX=-0.003;entryY=0.053;entryDx=0;entryDy=0;entryPerimeter=0;fillColor=#E6E6E6;" edge="1" parent="1" target="D1C-Uw6BHI1zUn_v0fFK-32">
          <mxGeometry width="50" height="50" relative="1" as="geometry">
            <mxPoint x="150" y="460" as="sourcePoint" />
            <mxPoint x="220" y="420" as="targetPoint" />
            <Array as="points">
              <mxPoint x="170" y="460" />
            </Array>
          </mxGeometry>
        </mxCell>
        <mxCell id="D1C-Uw6BHI1zUn_v0fFK-37" value="&lt;b&gt;BI Reporting&amp;nbsp;&lt;br&gt;&amp;amp;&lt;br&gt;Dashboarding&lt;/b&gt;" style="image;aspect=fixed;html=1;points=[];align=center;fontSize=12;image=img/lib/azure2/power_platform/PowerBI.svg;" vertex="1" parent="1">
          <mxGeometry x="710" y="322" width="51" height="68" as="geometry" />
        </mxCell>
        <mxCell id="D1C-Uw6BHI1zUn_v0fFK-38" value="&lt;b&gt;Ad-Hoc Analysis&lt;br&gt;SQL Queries&lt;/b&gt;" style="sketch=0;pointerEvents=1;shadow=0;dashed=0;html=1;strokeColor=none;labelPosition=center;verticalLabelPosition=bottom;verticalAlign=top;align=center;fillColor=#0000FF;shape=mxgraph.mscae.oms.log_search" vertex="1" parent="1">
          <mxGeometry x="710" y="480" width="50" height="50" as="geometry" />
        </mxCell>
        <mxCell id="D1C-Uw6BHI1zUn_v0fFK-39" value="&lt;font style=&quot;font-size: 13px; color: rgb(255, 255, 255);&quot;&gt;&lt;b&gt;Machine Learning&lt;/b&gt;&lt;/font&gt;" style="sketch=0;points=[[0,0,0],[0.25,0,0],[0.5,0,0],[0.75,0,0],[1,0,0],[0,1,0],[0.25,1,0],[0.5,1,0],[0.75,1,0],[1,1,0],[0,0.25,0],[0,0.5,0],[0,0.75,0],[1,0.25,0],[1,0.5,0],[1,0.75,0]];outlineConnect=0;fontColor=#232F3E;fillColor=#01A88D;strokeColor=#ffffff;dashed=0;verticalLabelPosition=bottom;verticalAlign=top;align=center;html=1;fontSize=12;fontStyle=0;aspect=fixed;shape=mxgraph.aws4.resourceIcon;resIcon=mxgraph.aws4.machine_learning;" vertex="1" parent="1">
          <mxGeometry x="701" y="600" width="78" height="78" as="geometry" />
        </mxCell>
        <mxCell id="D1C-Uw6BHI1zUn_v0fFK-42" value="" style="shape=flexArrow;endArrow=classic;html=1;rounded=0;entryX=0.023;entryY=0.393;entryDx=0;entryDy=0;entryPerimeter=0;fillColor=#E6E6E6;" edge="1" parent="1">
          <mxGeometry width="50" height="50" relative="1" as="geometry">
            <mxPoint x="620" y="460" as="sourcePoint" />
            <mxPoint x="680" y="460" as="targetPoint" />
            <Array as="points">
              <mxPoint x="640" y="460" />
            </Array>
          </mxGeometry>
        </mxCell>
        <mxCell id="D1C-Uw6BHI1zUn_v0fFK-43" value="" style="edgeStyle=segmentEdgeStyle;endArrow=classic;html=1;curved=0;rounded=1;jumpSize=7;shadow=0;shape=flexArrow;fillColor=#E6E6E6;startSize=4;endSize=4;width=5.217391304347826;" edge="1" parent="1">
          <mxGeometry width="50" height="50" relative="1" as="geometry">
            <mxPoint x="320" y="780" as="sourcePoint" />
            <mxPoint x="370" y="740" as="targetPoint" />
          </mxGeometry>
        </mxCell>
        <mxCell id="D1C-Uw6BHI1zUn_v0fFK-44" value="" style="edgeStyle=segmentEdgeStyle;endArrow=classic;html=1;curved=0;rounded=1;jumpSize=7;shadow=0;shape=flexArrow;fillColor=#E6E6E6;startSize=4;endSize=4;width=5.217391304347826;" edge="1" parent="1">
          <mxGeometry width="50" height="50" relative="1" as="geometry">
            <mxPoint x="460" y="780" as="sourcePoint" />
            <mxPoint x="510" y="740" as="targetPoint" />
          </mxGeometry>
        </mxCell>
        <mxCell id="D1C-Uw6BHI1zUn_v0fFK-47" value="UPPER LEVEL ARCHITECTURE" style="rounded=0;whiteSpace=wrap;html=1;align=left;fontStyle=1;fontSize=25;" vertex="1" parent="1">
          <mxGeometry x="30" y="160" width="450" height="40" as="geometry" />
        </mxCell>
        <mxCell id="D1C-Uw6BHI1zUn_v0fFK-48" value="" style="image;aspect=fixed;perimeter=ellipsePerimeter;html=1;align=center;shadow=0;dashed=0;spacingTop=3;image=img/lib/active_directory/sql_server.svg;" vertex="1" parent="1">
          <mxGeometry x="190" y="220" width="30.8" height="40" as="geometry" />
        </mxCell>
        <mxCell id="D1C-Uw6BHI1zUn_v0fFK-49" value="" style="sketch=0;outlineConnect=0;fontColor=#232F3E;gradientColor=none;fillColor=#C925D1;strokeColor=none;dashed=0;verticalLabelPosition=bottom;verticalAlign=top;align=center;html=1;fontSize=12;fontStyle=0;aspect=fixed;pointerEvents=1;shape=mxgraph.aws4.rds_sql_server_instance;" vertex="1" parent="1">
          <mxGeometry x="460" y="140" width="35" height="35" as="geometry" />
        </mxCell>
      </root>
    </mxGraphModel>
  </diagram>
</mxfile>
